<svg xmlns="http://www.w3.org/2000/svg" viewBox="0 0 24 24" width="24" height="24">
  <circle cx="12" cy="12" r="11" fill="#07C160"/>
  <path d="M10.5 7C8.01 7 6 8.68 6 10.75c0 1.1.56 2.08 1.44 2.78l-.36 1.32 1.52-.76c.57.18 1.18.28 1.83.28.1 0 .2 0 .3-.01A3.72 3.72 0 0 1 10.5 13c0-2.21 2.01-4 4.5-4h.5c-.56-1.16-2.24-2-4-2h-1z" fill="#fff"/>
  <path d="M15 10c-2.21 0-4 1.57-4 3.5S12.79 17 15 17c.55 0 1.07-.1 1.55-.28l1.25.63-.3-1.08c.76-.62 1.25-1.46 1.25-2.4 0-1.78-1.57-3.37-3.75-3.37V10z" fill="#fff" fill-opacity=".7"/>
  <circle cx="9.25" cy="10.25" r=".65" fill="#07C160"/>
  <circle cx="11.75" cy="10.25" r=".65" fill="#07C160"/>
  <circle cx="13.75" cy="13.25" r=".5" fill="#07C160"/>
  <circle cx="15.75" cy="13.25" r=".5" fill="#07C160"/>
</svg>
