<svg xmlns="http://www.w3.org/2000/svg" viewBox="0 0 24 24" width="24" height="24">
  <circle cx="12" cy="12" r="11" fill="#25D366"/>
  <path d="M12 7c-2.76 0-5 2.12-5 4.75 0 .88.26 1.7.7 2.42L7 17l2.93-.73c.65.36 1.38.58 2.07.58 2.76 0 5-2.12 5-4.75S14.76 7.1 12 7.1V7zm0 8c-.55 0-1.08-.14-1.55-.4l-.1-.06-1.75.44.46-1.65-.08-.12A3.5 3.5 0 0 1 8.5 11.7C8.5 9.88 10.07 8.4 12 8.4s3.5 1.48 3.5 3.35S13.93 15 12 15z" fill="#fff"/>
  <path d="M14.2 12.77c-.2-.1-1.17-.57-1.35-.63-.18-.07-.31-.1-.44.1s-.5.63-.62.76-.23.15-.42.05c-.2-.1-.83-.3-1.58-.97-.58-.52-.98-1.16-1.09-1.35-.12-.2-.01-.3.09-.4.09-.09.2-.23.3-.35.1-.12.13-.2.2-.33.06-.13.03-.25-.02-.35s-.44-1.06-.6-1.45c-.16-.38-.32-.33-.44-.33h-.37c-.13 0-.34.05-.52.25s-.68.67-.68 1.62.7 1.88.8 2.01c.1.13 1.37 2.1 3.33 2.94.47.2.83.32 1.11.41.47.15.89.13 1.23.08.37-.06 1.17-.48 1.33-.94.17-.46.17-.86.12-.94-.05-.08-.18-.13-.38-.23z" fill="#fff"/>
</svg>
